<svg width="84" height="84" viewBox="0 0 84 84" fill="none" xmlns="http://www.w3.org/2000/svg">
<rect width="84" height="84" fill="#1E1E1E"/>
<g id="Desktop - Course Landing" clip-path="url(#clip0_0_1)">
<rect width="1440" height="1024" transform="translate(-1332 -15)" fill="white"/>
<g id="Top Bar">
<g id="Rectangle 11" filter="url(#filter0_d_0_1)">
<rect x="-1332" y="-15" width="1440" height="114" fill="white"/>
</g>
<g id="AccountIcon 1">
<path id="Vector" d="M20.475 59.85C23.45 57.575 26.775 55.7812 30.45 54.4688C34.125 53.1562 37.975 52.5 42 52.5C46.025 52.5 49.875 53.1562 53.55 54.4688C57.225 55.7812 60.55 57.575 63.525 59.85C65.5667 57.4583 67.1562 54.7458 68.2938 51.7125C69.4312 48.6792 70 45.4417 70 42C70 34.2417 67.2729 27.6354 61.8187 22.1812C56.3646 16.7271 49.7583 14 42 14C34.2417 14 27.6354 16.7271 22.1812 22.1812C16.7271 27.6354 14 34.2417 14 42C14 45.4417 14.5687 48.6792 15.7063 51.7125C16.8438 54.7458 18.4333 57.4583 20.475 59.85ZM42 45.5C38.5583 45.5 35.6562 44.3187 33.2937 41.9562C30.9312 39.5938 29.75 36.6917 29.75 33.25C29.75 29.8083 30.9312 26.9062 33.2937 24.5437C35.6562 22.1812 38.5583 21 42 21C45.4417 21 48.3438 22.1812 50.7062 24.5437C53.0687 26.9062 54.25 29.8083 54.25 33.25C54.25 36.6917 53.0687 39.5938 50.7062 41.9562C48.3438 44.3187 45.4417 45.5 42 45.5ZM42 77C37.1583 77 32.6083 76.0812 28.35 74.2438C24.0917 72.4062 20.3875 69.9125 17.2375 66.7625C14.0875 63.6125 11.5938 59.9083 9.75625 55.65C7.91875 51.3917 7 46.8417 7 42C7 37.1583 7.91875 32.6083 9.75625 28.35C11.5938 24.0917 14.0875 20.3875 17.2375 17.2375C20.3875 14.0875 24.0917 11.5938 28.35 9.75625C32.6083 7.91875 37.1583 7 42 7C46.8417 7 51.3917 7.91875 55.65 9.75625C59.9083 11.5938 63.6125 14.0875 66.7625 17.2375C69.9125 20.3875 72.4062 24.0917 74.2438 28.35C76.0812 32.6083 77 37.1583 77 42C77 46.8417 76.0812 51.3917 74.2438 55.65C72.4062 59.9083 69.9125 63.6125 66.7625 66.7625C63.6125 69.9125 59.9083 72.4062 55.65 74.2438C51.3917 76.0812 46.8417 77 42 77ZM42 70C45.0917 70 48.0083 69.5479 50.75 68.6437C53.4917 67.7396 56 66.4417 58.275 64.75C56 63.0583 53.4917 61.7604 50.75 60.8563C48.0083 59.9521 45.0917 59.5 42 59.5C38.9083 59.5 35.9917 59.9521 33.25 60.8563C30.5083 61.7604 28 63.0583 25.725 64.75C28 66.4417 30.5083 67.7396 33.25 68.6437C35.9917 69.5479 38.9083 70 42 70ZM42 38.5C43.5167 38.5 44.7708 38.0042 45.7625 37.0125C46.7542 36.0208 47.25 34.7667 47.25 33.25C47.25 31.7333 46.7542 30.4792 45.7625 29.4875C44.7708 28.4958 43.5167 28 42 28C40.4833 28 39.2292 28.4958 38.2375 29.4875C37.2458 30.4792 36.75 31.7333 36.75 33.25C36.75 34.7667 37.2458 36.0208 38.2375 37.0125C39.2292 38.0042 40.4833 38.5 42 38.5Z" fill="#202020"/>
</g>
</g>
</g>
<defs>
<filter id="filter0_d_0_1" x="-1336" y="-15" width="1448" height="128" filterUnits="userSpaceOnUse" color-interpolation-filters="sRGB">
<feFlood flood-opacity="0" result="BackgroundImageFix"/>
<feColorMatrix in="SourceAlpha" type="matrix" values="0 0 0 0 0 0 0 0 0 0 0 0 0 0 0 0 0 0 127 0" result="hardAlpha"/>
<feOffset dy="10"/>
<feGaussianBlur stdDeviation="2"/>
<feComposite in2="hardAlpha" operator="out"/>
<feColorMatrix type="matrix" values="0 0 0 0 0 0 0 0 0 0 0 0 0 0 0 0 0 0 0.25 0"/>
<feBlend mode="normal" in2="BackgroundImageFix" result="effect1_dropShadow_0_1"/>
<feBlend mode="normal" in="SourceGraphic" in2="effect1_dropShadow_0_1" result="shape"/>
</filter>
<clipPath id="clip0_0_1">
<rect width="1440" height="1024" fill="white" transform="translate(-1332 -15)"/>
</clipPath>
</defs>
</svg>
